<?xml version="1.0" encoding="UTF-8"?>
<svg width="17px" height="13px" viewBox="0 0 17 13" version="1.1" xmlns="http://www.w3.org/2000/svg" xmlns:xlink="http://www.w3.org/1999/xlink">
    <!-- Generator: Sketch 56.3 (81716) - https://sketch.com -->
    <title>gmail</title>
    <desc>Created with Sketch.</desc>
    <g id="Page-1" stroke="none" stroke-width="1" fill="none" fill-rule="evenodd">
        <g id="Desktop" transform="translate(-969.000000, -127.000000)" fill="#000000" fill-rule="nonzero">
            <g id="Group-5" transform="translate(969.000000, 44.000000)">
                <g id="gmail" transform="translate(0.000000, 83.000000)">
                    <path d="M16.2608696,1.03623188 L16.2608696,11.3985507 C16.2608696,11.9857488 15.820471,12.4347826 15.2445652,12.4347826 L14.2282609,12.4347826 L14.2282609,3.03063285 L8.13043478,7.49541063 L2.0326087,3.03063285 L2.0326087,12.4347826 L1.01630435,12.4347826 C0.439721014,12.4347826 0,11.9857488 0,11.3985507 L0,1.03623188 C0,0.74263285 0.10976087,0.483574879 0.292018116,0.298434783 C0.474275362,0.110531401 0.729028986,0 1.01630435,0 L1.35507246,0 L8.13043478,5.00845411 L14.9057971,0 L15.2445652,0 C15.5325181,0 15.7865942,0.111913043 15.9688514,0.298434783 C16.1517862,0.483574879 16.2608696,0.74263285 16.2608696,1.03623188 Z" id="Path"></path>
                </g>
            </g>
        </g>
    </g>
</svg>