<?xml version="1.0" encoding="UTF-8"?>
<svg width="257px" height="30px" viewBox="0 0 257 30" version="1.1" xmlns="http://www.w3.org/2000/svg" xmlns:xlink="http://www.w3.org/1999/xlink">
    <!-- Generator: Sketch 56.3 (81716) - https://sketch.com -->
    <title>Hi.I’mXavierMod.</title>
    <desc>Created with Sketch.</desc>
    <g id="Page-1" stroke="none" stroke-width="1" fill="none" fill-rule="evenodd">
        <g id="Desktop" transform="translate(-50.000000, -279.000000)" fill="#000000" fill-rule="nonzero">
            <g id="Group-4" transform="translate(37.000000, 271.000000)">
                <g id="Group-3" transform="translate(0.712537, 0.000000)">
                    <path d="M22.988,23.74 C22.988,23.8600006 22.9340005,23.9559996 22.826,24.028 C22.7179995,24.1000004 22.5980007,24.1599998 22.466,24.208 C22.3339993,24.2560002 22.1960007,24.3099997 22.052,24.37 C21.9079993,24.4300003 21.8000004,24.4959996 21.728,24.568 L21.98,26.26 C22.124,27.1960047 22.2499995,28.1079956 22.358,28.996 C22.4660005,29.8840044 22.52,30.723996 22.52,31.516 C22.52,32.1400031 22.4540007,32.6979975 22.322,33.19 C22.1899993,33.6820025 21.9560017,33.928 21.62,33.928 C21.4519992,33.928 21.3020007,33.7180021 21.17,33.298 C21.0379993,32.8779979 20.9300004,32.3980027 20.846,31.858 C20.7619996,31.3179973 20.7020002,30.7780027 20.666,30.238 C20.6299998,29.6979973 20.612,29.3080012 20.612,29.068 C20.612,28.8999992 20.6000001,28.6300019 20.576,28.258 C20.5519999,27.8859981 20.5160002,27.4900021 20.468,27.07 C20.4199998,26.6499979 20.3720002,26.2540019 20.324,25.882 C20.2759998,25.5099981 20.2400001,25.228001 20.216,25.036 C19.807998,25.0600001 19.2560035,25.1139996 18.56,25.198 C17.8639965,25.2820004 17.012005,25.4559987 16.004,25.72 L16.004,26.152 C16.004,26.6800026 16.0279998,27.2619968 16.076,27.898 C16.124,28.5340032 16.1779997,29.1819967 16.238,29.842 C16.2980003,30.5020033 16.3519998,31.1619967 16.4,31.822 C16.4480002,32.4820033 16.472,33.111997 16.472,33.712 C16.472,33.9520012 16.4480002,34.1499992 16.4,34.306 C16.3519998,34.4620008 16.2440008,34.54 16.076,34.54 C15.7879986,34.54 15.5660008,34.3960014 15.41,34.108 C15.2539992,33.8199986 15.1400004,33.478002 15.068,33.082 C14.9959996,32.685998 14.9420002,32.2720022 14.906,31.84 L14.816,30.76 C14.7199995,30.1359969 14.6420003,29.4100041 14.582,28.582 C14.5219997,27.7539959 14.4680002,26.9080043 14.42,26.044 C14.3239995,26.044 14.2040007,26.0140003 14.06,25.954 C13.9159993,25.8939997 13.7720007,25.8220004 13.628,25.738 C13.4839993,25.6539996 13.3640005,25.5640005 13.268,25.468 C13.1719995,25.3719995 13.124,25.2640006 13.124,25.144 C13.124,24.8559986 13.2559987,24.6220009 13.52,24.442 C13.7840013,24.2619991 14.0719984,24.1120006 14.384,23.992 C14.3599999,23.7759989 14.348,23.5420013 14.348,23.29 L14.348,19.042 C14.348,18.3819967 14.3539999,17.656 14.366,16.864 C14.3780001,16.071996 14.384,15.2680041 14.384,14.452 C14.4080001,14.259999 14.4679995,14.0260014 14.564,13.75 C14.6600005,13.4739986 14.8159989,13.336 15.032,13.336 C15.2000008,13.336 15.3439994,13.4019993 15.464,13.534 C15.5840006,13.6660007 15.6799996,13.827999 15.752,14.02 C15.8240004,14.212001 15.8779998,14.409999 15.914,14.614 C15.9500002,14.818001 15.968,14.9919993 15.968,15.136 L15.968,23.74 C16.1840011,23.74 16.4719982,23.7280001 16.832,23.704 C17.1920018,23.6799999 17.5639981,23.6500002 17.948,23.614 C18.3320019,23.5779998 18.7099981,23.5360002 19.082,23.488 C19.4540019,23.4399998 19.7599988,23.3920002 20,23.344 L19.172,15.784 C19.1479999,15.6159992 19.1300001,15.436001 19.118,15.244 C19.1059999,15.051999 19.1,14.8960006 19.1,14.776 C19.1,14.2959976 19.1659993,13.9060015 19.298,13.606 C19.4300007,13.3059985 19.6279987,13.156 19.892,13.156 C20.2280017,13.156 20.4319996,13.3119984 20.504,13.624 C20.5760004,13.9360016 20.624,14.391997 20.648,14.992 C20.6720001,15.3760019 20.6959999,15.7539981 20.72,16.126 C20.7440001,16.4980019 20.7799998,16.8639982 20.828,17.224 L21.656,23.308 C21.9440014,23.308 22.2379985,23.3259998 22.538,23.362 C22.8380015,23.3980002 22.988,23.5239989 22.988,23.74 Z M29.916,17.44 C29.916,17.4880002 29.8320008,17.5839993 29.664,17.728 C29.4959992,17.8720007 29.2980011,18.0219992 29.07,18.178 C28.8419989,18.3340008 28.6080012,18.4719994 28.368,18.592 C28.1279988,18.7120006 27.9360007,18.772 27.792,18.772 C27.6959995,18.772 27.5700008,18.7660001 27.414,18.754 C27.2579992,18.7419999 27.1020008,18.7000004 26.946,18.628 C26.7899992,18.5559996 26.6520006,18.4540007 26.532,18.322 C26.4119994,18.1899993 26.352,18.0160011 26.352,17.8 C26.352,17.4639983 26.4719988,17.1460015 26.712,16.846 C26.9520012,16.5459985 27.2639981,16.396 27.648,16.396 C27.7200004,16.396 27.8819987,16.4259997 28.134,16.486 C28.3860013,16.5460003 28.6439987,16.6239995 28.908,16.72 C29.1720013,16.8160005 29.405999,16.9239994 29.61,17.044 C29.814001,17.1640006 29.916,17.2959993 29.916,17.44 Z M31.104,30.904 C31.104,31.0720008 30.9780013,31.2159994 30.726,31.336 C30.4739987,31.4560006 30.2880006,31.516 30.168,31.516 C29.9279988,31.516 29.712001,31.3600016 29.52,31.048 C29.327999,30.7359984 29.1600007,30.376002 29.016,29.968 C28.8719993,29.559998 28.7520005,29.1700019 28.656,28.798 C28.5599995,28.4259981 28.4880002,28.1680007 28.44,28.024 C28.3679996,27.7839988 28.2720006,27.4960017 28.152,27.16 C28.0319994,26.8239983 27.9180005,26.5000016 27.81,26.188 C27.7019995,25.8759984 27.6120004,25.6000012 27.54,25.36 C27.4679996,25.1199988 27.432,24.9880001 27.432,24.964 C27.432,24.6279983 27.4979993,24.3160014 27.63,24.028 C27.7620007,23.7399986 27.923999,23.596 28.116,23.596 C28.3320011,23.596 28.5599988,23.7639983 28.8,24.1 C29.0400012,24.4360017 29.2739989,24.8619974 29.502,25.378 C29.7300011,25.8940026 29.939999,26.4579969 30.132,27.07 C30.324001,27.6820031 30.4919993,28.2579973 30.636,28.798 C30.7800007,29.3380027 30.8939996,29.805998 30.978,30.202 C31.0620004,30.598002 31.104,30.8319996 31.104,30.904 Z M37.276,31.696 C37.276,31.8400007 37.2040007,31.9779993 37.06,32.11 C36.9159993,32.2420007 36.7540009,32.3619995 36.574,32.47 C36.3939991,32.5780005 36.2200008,32.6619997 36.052,32.722 C35.8839992,32.7820003 35.7880001,32.812 35.764,32.812 C35.5479989,32.812 35.3860005,32.7580005 35.278,32.65 C35.1699995,32.5419995 35.0860003,32.4220007 35.026,32.29 C34.9659997,32.1579993 34.9300001,32.0320006 34.918,31.912 C34.9059999,31.792 34.9,31.7080002 34.9,31.66 C34.9,31.5639995 34.9239998,31.4380008 34.972,31.282 C35.0200002,31.1259992 35.0919995,30.9760007 35.188,30.832 C35.2840005,30.6879993 35.3979993,30.5620005 35.53,30.454 C35.6620007,30.3459995 35.8119992,30.292 35.98,30.292 C36.2920016,30.292 36.5859986,30.4239987 36.862,30.688 C37.1380014,30.9520013 37.276,31.287998 37.276,31.696 Z M75.072,28.852 C75.072,29.3080023 74.7960028,29.6439989 74.244,29.86 C73.6919972,30.0760011 73.0500037,30.2979989 72.318,30.526 C71.5859963,30.7540011 70.8840034,30.9579991 70.212,31.138 C69.5399966,31.3180009 68.9460026,31.4859992 68.43,31.642 C67.9139974,31.7980008 67.5960006,31.9119996 67.476,31.984 L67.476,32.164 C67.476,32.2360004 67.4879999,32.3079996 67.512,32.38 L67.62,33.244 C67.62,33.4600011 67.5900003,33.6279994 67.53,33.748 C67.4699997,33.8680006 67.344001,33.928 67.152,33.928 C66.9359989,33.928 66.7860004,33.8620007 66.702,33.73 C66.6179996,33.5979993 66.5460003,33.4420009 66.486,33.262 C66.4259997,33.0819991 66.3780002,32.896001 66.342,32.704 C66.3059998,32.511999 66.2400005,32.3680005 66.144,32.272 C66.0959998,32.272 65.9040017,32.3199995 65.568,32.416 C65.2319983,32.5120005 64.8060026,32.6319993 64.29,32.776 C63.7739974,32.9200007 63.1980032,33.0819991 62.562,33.262 C61.9259968,33.4420009 61.308003,33.6039993 60.708,33.748 C60.107997,33.8920007 59.5440026,34.0119995 59.016,34.108 C58.4879974,34.2040005 58.0800014,34.252 57.792,34.252 C57.1439968,34.252 56.82,34.048002 56.82,33.64 C56.82,33.3279984 56.9099991,33.1000007 57.09,32.956 C57.2700009,32.8119993 57.4799988,32.7040004 57.72,32.632 C57.7680002,32.6079999 58.0019979,32.5480005 58.422,32.452 C58.8420021,32.3559995 59.351997,32.2420007 59.952,32.11 C60.552003,31.9779993 61.1939966,31.8280008 61.878,31.66 C62.5620034,31.4919992 63.1979971,31.3360007 63.786,31.192 C64.3740029,31.0479993 64.8539981,30.9160006 65.226,30.796 C65.5980019,30.6759994 65.784,30.5920002 65.784,30.544 C65.784,30.3999993 65.7300005,30.1360019 65.622,29.752 C65.5139995,29.3679981 65.4120005,29.0080017 65.316,28.672 L65.1,27.952 C64.7639983,26.4159923 64.500001,24.8680078 64.308,23.308 C64.115999,21.7479922 63.9600006,20.2120076 63.84,18.7 C63.7919998,18.6519998 63.7320004,18.628 63.66,18.628 C63.5399994,18.628 63.2280025,18.7479988 62.724,18.988 C62.2199975,19.2280012 61.6800029,19.4859986 61.104,19.762 C60.5279971,20.0380014 59.9940025,20.2959988 59.502,20.536 C59.0099975,20.7760012 58.7160005,20.896 58.62,20.896 C58.4519992,20.896 58.2900008,20.8240007 58.134,20.68 C57.9779992,20.5359993 57.9,20.3920007 57.9,20.248 C57.9,20.055999 58.0559984,19.8340013 58.368,19.582 C58.6800016,19.3299987 59.0699977,19.0660014 59.538,18.79 C60.0060023,18.5139986 60.5219972,18.2500013 61.086,17.998 C61.6500028,17.7459987 62.1899974,17.518001 62.706,17.314 C63.2220026,17.109999 63.6659981,16.9480006 64.038,16.828 C64.4100019,16.7079994 64.6559994,16.648 64.776,16.648 C64.968001,16.648 65.2199984,16.6120004 65.532,16.54 C65.8440016,16.4679996 66.1799982,16.3840005 66.54,16.288 C66.9000018,16.1919995 67.2659981,16.1080004 67.638,16.036 C68.0100019,15.9639996 68.3399986,15.928 68.628,15.928 C68.9400016,15.928 69.096,16.0359989 69.096,16.252 C69.096,16.3720006 69.0480005,16.4679996 68.952,16.54 L67.908,16.828 C67.6439987,16.9000004 67.3620015,16.9779996 67.062,17.062 C66.7619985,17.1460004 66.4860013,17.2419995 66.234,17.35 C65.9819987,17.4580005 65.7780008,17.5779993 65.622,17.71 C65.4659992,17.8420007 65.388,17.9799993 65.388,18.124 C65.388,18.724003 65.4539993,19.5099951 65.586,20.482 C65.7180007,21.4540049 65.8739991,22.4979944 66.054,23.614 C66.2340009,24.7300056 66.4319989,25.8639942 66.648,27.016 C66.8640011,28.1680058 67.0439993,29.247995 67.188,30.256 L73.632,28.6 C73.7760007,28.5759999 73.9199993,28.5400002 74.064,28.492 C74.1840006,28.4439998 74.3039994,28.4080001 74.424,28.384 C74.5440006,28.3599999 74.6519995,28.348 74.748,28.348 C74.9640011,28.348 75.072,28.5159983 75.072,28.852 Z M81.136,23.2 C81.136,23.6320022 81.0460009,24.0279982 80.866,24.388 C80.6859991,24.7480018 80.4760012,25.0539987 80.236,25.306 C79.9959988,25.5580013 79.7680011,25.7559993 79.552,25.9 C79.3359989,26.0440007 79.1800005,26.116 79.084,26.116 C79.0119996,26.116 78.9220005,26.0620005 78.814,25.954 C78.7059995,25.8459995 78.652,25.7200007 78.652,25.576 C78.652,25.5519999 78.6999995,25.4680007 78.796,25.324 C78.8920005,25.1799993 79.0059993,25.006001 79.138,24.802 C79.2700007,24.597999 79.3839995,24.3580014 79.48,24.082 C79.5760005,23.8059986 79.624,23.5120016 79.624,23.2 C79.624,22.5759969 79.5640006,22.0180025 79.444,21.526 C79.3239994,21.0339975 79.168001,20.5480024 78.976,20.068 C78.9519999,19.9959996 78.9220002,19.9120005 78.886,19.816 C78.8499998,19.7199995 78.832,19.6480002 78.832,19.6 C78.832,19.4319992 78.8859995,19.3240002 78.994,19.276 C79.1020005,19.2279998 79.2159994,19.204 79.336,19.204 C79.5040008,19.204 79.6959989,19.3539985 79.912,19.654 C80.1280011,19.9540015 80.3259991,20.307998 80.506,20.716 C80.6860009,21.124002 80.8359994,21.5619977 80.956,22.03 C81.0760006,22.4980023 81.136,22.8879984 81.136,23.2 Z M101.456,30.616 C101.456,30.808001 101.396001,30.9759993 101.276,31.12 C101.155999,31.2640007 101.012001,31.3779996 100.844,31.462 C100.675999,31.5460004 100.502001,31.6119998 100.322,31.66 C100.141999,31.7080002 99.9920006,31.732 99.872,31.732 C99.3679975,31.732 98.9360018,31.4620027 98.576,30.922 C98.2159982,30.3819973 97.9160012,29.7820033 97.676,29.122 C97.4359988,28.4619967 97.2620005,27.8440029 97.154,27.268 C97.0459995,26.6919971 96.992,26.3800002 96.992,26.332 C96.8479993,26.5960013 96.6980008,27.0399969 96.542,27.664 C96.3859992,28.2880031 96.2000011,28.9179968 95.984,29.554 C95.7679989,30.1900032 95.4980016,30.7539975 95.174,31.246 C94.8499984,31.7380025 94.4360025,31.984 93.932,31.984 C93.6919988,31.984 93.4640011,31.8400014 93.248,31.552 C93.0319989,31.2639986 92.828001,30.8920023 92.636,30.436 C92.443999,29.9799977 92.2580009,29.4640029 92.078,28.888 C91.8979991,28.3119971 91.7180009,27.7480028 91.538,27.196 C91.3579991,26.6439972 91.1840008,26.1220025 91.016,25.63 C90.8479992,25.1379975 90.6800008,24.7480014 90.512,24.46 C90.3679993,24.8200018 90.2420005,25.3119969 90.134,25.936 C90.0259995,26.5600031 89.9360004,27.2139966 89.864,27.898 C89.792,28.5820034 89.7320002,29.2599966 89.684,29.932 C89.6359998,30.6040034 89.612,31.1919975 89.612,31.696 C89.612,32.0320017 89.5220009,32.2719993 89.342,32.416 C89.1619991,32.5600007 88.976001,32.632 88.784,32.632 C88.5199987,32.632 88.2560013,32.4580017 87.992,32.11 C87.7279987,31.7619983 87.4640013,31.3120028 87.2,30.76 C86.9359987,30.2079972 86.6900011,29.5840035 86.462,28.888 C86.2339989,28.1919965 86.0300009,27.4960035 85.85,26.8 C85.6699991,26.1039965 85.5320005,25.4380032 85.436,24.802 C85.3399995,24.1659968 85.292,23.6320022 85.292,23.2 C85.292,22.8879984 85.3039999,22.6000013 85.328,22.336 C85.3520001,22.1199989 85.3699999,21.916001 85.382,21.724 C85.3940001,21.531999 85.4,21.4240001 85.4,21.4 C85.4,21.3279996 85.3820002,21.2800001 85.346,21.256 C85.3099998,21.2319999 85.292,21.1720005 85.292,21.076 C85.292,21.0039996 85.3819991,20.8900008 85.562,20.734 C85.7420009,20.5779992 85.927999,20.5 86.12,20.5 C86.4560017,20.5 86.6779995,20.5719993 86.786,20.716 C86.8940005,20.8600007 86.948,21.027999 86.948,21.22 C86.948,21.2920004 86.9420001,21.3999993 86.93,21.544 C86.9179999,21.6880007 86.912,22.0119975 86.912,22.516 C86.912,22.8520017 86.9719994,23.3559966 87.092,24.028 C87.2120006,24.7000034 87.3559992,25.3839965 87.524,26.08 C87.6920008,26.7760035 87.8659991,27.4179971 88.046,28.006 C88.2260009,28.5940029 88.3759994,28.9599993 88.496,29.104 C88.5440002,29.0079995 88.5739999,28.8940007 88.586,28.762 C88.5980001,28.6299993 88.6159999,28.5280004 88.64,28.456 L89.036,25.504 C89.1320005,24.7599963 89.3299985,23.9740041 89.63,23.146 C89.9300015,22.3179959 90.2479983,21.6760023 90.584,21.22 C90.7040006,21.027999 90.8359993,20.932 90.98,20.932 C91.1240007,20.932 91.2559994,21.0399989 91.376,21.256 C91.784002,21.9280034 92.089999,22.5939967 92.294,23.254 C92.498001,23.9140033 92.6779992,24.5619968 92.834,25.198 C92.9900008,25.8340032 93.169999,26.4699968 93.374,27.106 C93.578001,27.7420032 93.8959978,28.3839968 94.328,29.032 C94.520001,28.7199984 94.7599986,28.2100035 95.048,27.502 C95.3360014,26.7939965 95.6299985,26.0800036 95.93,25.36 C96.2300015,24.6399964 96.5119987,24.0100027 96.776,23.47 C97.0400013,22.9299973 97.2439993,22.66 97.388,22.66 C97.4600004,22.66 97.5799992,22.6719999 97.748,22.696 C97.9160008,22.7200001 98.0359996,22.732 98.108,22.732 C98.3240011,22.732 98.5039993,22.9779975 98.648,23.47 C98.792,23.9620025 98.9179995,24.5379967 99.026,25.198 L99.35,27.178 C99.4580005,27.8380033 99.5839993,28.3359983 99.728,28.672 C99.8240005,28.9120012 99.967999,29.1399989 100.16,29.356 C100.352001,29.5720011 100.543999,29.775999 100.736,29.968 C100.976001,30.1840011 101.215999,30.3999989 101.456,30.616 Z M135.652,32.308 C135.652,32.5720013 135.574001,32.7279998 135.418,32.776 C135.261999,32.8240002 135.124001,32.848 135.004,32.848 C134.956,32.848 134.638003,32.5840026 134.05,32.056 C133.461997,31.5279974 132.766004,30.9040036 131.962,30.184 C131.157996,29.4639964 130.348004,28.7440036 129.532,28.024 C128.715996,27.3039964 128.056003,26.7520019 127.552,26.368 C127.576,26.7040017 127.612,27.1059977 127.66,27.574 C127.708,28.0420023 127.756,28.4979978 127.804,28.942 C127.852,29.3860022 127.894,29.7819983 127.93,30.13 C127.966,30.4780017 127.984,30.7239993 127.984,30.868 C127.984,31.2280018 127.906001,31.5399987 127.75,31.804 C127.593999,32.0680013 127.348002,32.2 127.012,32.2 C126.771999,32.2 126.622,32.1700003 126.562,32.11 C126.502,32.0499997 126.448,31.8880013 126.4,31.624 C126.328,31.2639982 126.256,30.7780031 126.184,30.166 C126.112,29.5539969 126.052,28.9060034 126.004,28.222 C125.956,27.5379966 125.914,26.8720032 125.878,26.224 C125.842,25.5759968 125.812,25.048002 125.788,24.64 L125.068,23.776 C124.707998,23.3439978 124.294002,22.828003 123.826,22.228 C123.357998,21.627997 122.866003,20.9800035 122.35,20.284 C121.833997,19.5879965 121.360002,18.9160032 120.928,18.268 C120.495998,17.6199968 120.136001,17.032 119.848,16.504 C119.559999,15.9759974 119.416,15.5800013 119.416,15.316 C119.416,15.123999 119.511999,14.8900014 119.704,14.614 C119.896001,14.3379986 120.099999,14.2 120.316,14.2 C120.508001,14.2 120.789998,14.5119969 121.162,15.136 C121.534002,15.7600031 121.971997,16.4919958 122.476,17.332 C122.980003,18.1720042 123.519997,19.0299956 124.096,19.906 C124.672003,20.7820044 125.247997,21.4839974 125.824,22.012 C125.872,21.5559977 125.89,21.124002 125.878,20.716 C125.866,20.307998 125.872,19.9120019 125.896,19.528 C125.896,19.335999 125.908,18.9880025 125.932,18.484 C125.956,17.9799975 125.992,17.4100032 126.04,16.774 C126.088,16.1379968 126.154,15.4840034 126.238,14.812 C126.322,14.1399966 126.441999,13.5220028 126.598,12.958 C126.754001,12.3939972 126.933999,11.9320018 127.138,11.572 C127.342001,11.2119982 127.599998,11.032 127.912,11.032 C128.104001,11.032 128.224,11.1759986 128.272,11.464 C128.32,11.7520014 128.344,11.9439995 128.344,12.04 C128.344,12.9280044 128.290001,13.7799959 128.182,14.596 C128.073999,15.4120041 127.960001,16.2459957 127.84,17.098 C127.719999,17.9500043 127.606001,18.8559952 127.498,19.816 C127.389999,20.7760048 127.336,21.8439941 127.336,23.02 L127.336,23.236 C127.336,23.3080004 127.36,23.4039994 127.408,23.524 C127.504,23.7400011 127.779998,24.0639978 128.236,24.496 C128.692002,24.9280022 129.225997,25.4139973 129.838,25.954 C130.450003,26.4940027 131.097997,27.063997 131.782,27.664 C132.466003,28.264003 133.095997,28.8579971 133.672,29.446 C134.248003,30.0340029 134.721998,30.5739975 135.094,31.066 C135.466002,31.5580025 135.652,31.9719983 135.652,32.308 Z M155.972,26.512 C155.972,26.9440022 155.774002,27.4779968 155.378,28.114 C154.981998,28.7500032 154.448003,29.367997 153.776,29.968 C153.103997,30.568003 152.324004,31.0779979 151.436,31.498 C150.547996,31.9180021 149.624005,32.128 148.664,32.128 C148.231998,32.128 147.776002,32.0560007 147.296,31.912 C146.815998,31.7679993 146.348002,31.5580014 145.892,31.282 C145.435998,31.0059986 145.028002,30.670002 144.668,30.274 C144.307998,29.877998 144.044001,29.4280025 143.876,28.924 C143.731999,29.0680007 143.558001,29.3079983 143.354,29.644 C143.149999,29.9800017 142.928001,30.3219983 142.688,30.67 C142.447999,31.0180017 142.184001,31.3179987 141.896,31.57 C141.607999,31.8220013 141.308002,31.948 140.996,31.948 C140.683998,31.948 140.426001,31.7860016 140.222,31.462 C140.017999,31.1379984 139.856001,30.778002 139.736,30.382 C139.615999,29.985998 139.532,29.6080018 139.484,29.248 C139.436,28.8879982 139.412,28.684 139.412,28.636 C139.412,28.3479986 139.495999,27.802004 139.664,26.998 C139.832001,26.193996 140.083998,25.3600043 140.42,24.496 C140.756002,23.6319957 141.181997,22.8640034 141.698,22.192 C142.214003,21.5199966 142.819997,21.184 143.516,21.184 C143.780001,21.184 143.954,21.2979989 144.038,21.526 C144.122,21.7540011 144.164,21.9759989 144.164,22.192 L144.164,23.272 C144.284001,23.3680005 144.409999,23.4339998 144.542,23.47 C144.674001,23.5060002 144.793999,23.5539997 144.902,23.614 C145.010001,23.6740003 145.094,23.7639994 145.154,23.884 C145.214,24.0040006 145.244,24.1959987 145.244,24.46 C145.244,24.6280008 145.232,24.7779993 145.208,24.91 C145.184,25.0420007 145.172,25.1679994 145.172,25.288 C145.172,25.9120031 145.22,26.523997 145.316,27.124 C145.412,27.724003 145.603999,28.2579977 145.892,28.726 C146.180001,29.1940023 146.575997,29.5779985 147.08,29.878 C147.584003,30.1780015 148.255996,30.328 149.096,30.328 C150.152005,30.328 151.045996,30.1060022 151.778,29.662 C152.510004,29.2179978 153.121998,28.7260027 153.614,28.186 C154.106002,27.6459973 154.495999,27.1540022 154.784,26.71 C155.072001,26.2659978 155.311999,26.044 155.504,26.044 C155.816002,26.044 155.972,26.1999984 155.972,26.512 Z M143.336,24.928 C143.336,24.8319995 143.312,24.7420004 143.264,24.658 C143.216,24.5739996 143.192,24.4960004 143.192,24.424 C143.192,24.3279995 143.216,24.2440004 143.264,24.172 C143.312,24.0999996 143.336,24.0040006 143.336,23.884 C143.336,23.8119996 143.312,23.7580002 143.264,23.722 C143.216,23.6859998 143.192,23.6440002 143.192,23.596 C142.975999,23.6440002 142.754001,23.8479982 142.526,24.208 C142.297999,24.5680018 142.082001,24.9879976 141.878,25.468 C141.673999,25.9480024 141.512001,26.4339975 141.392,26.926 C141.271999,27.4180025 141.212,27.8199984 141.212,28.132 C141.212,28.3000008 141.26,28.5759981 141.356,28.96 C141.452,29.3440019 141.559999,29.596 141.68,29.716 C142.088002,28.8759958 142.465998,28.060004 142.814,27.268 C143.162002,26.475996 143.336,25.6960038 143.336,24.928 Z M164.988,21.328 C164.988,21.4000004 164.928001,21.7119972 164.808,22.264 C164.687999,22.8160028 164.568001,23.4399965 164.448,24.136 C164.376,24.544002 164.262001,25.149996 164.106,25.954 C163.949999,26.758004 163.872,27.9759918 163.872,29.608 C163.872,29.6560002 163.866,29.781999 163.854,29.986 C163.842,30.190001 163.806,30.3999989 163.746,30.616 C163.686,30.8320011 163.596001,31.0299991 163.476,31.21 C163.355999,31.3900009 163.176001,31.48 162.936,31.48 C162.719999,31.48 162.480001,31.384001 162.216,31.192 C161.615997,30.7599978 161.064003,30.2560029 160.56,29.68 C160.055997,29.1039971 159.624002,28.4740034 159.264,27.79 C158.903998,27.1059966 158.628001,26.3920037 158.436,25.648 C158.243999,24.9039963 158.148,24.1480038 158.148,23.38 C158.148,23.2839995 158.213999,23.1940004 158.346,23.11 C158.478001,23.0259996 158.58,22.984 158.652,22.984 C159.012002,22.984 159.293999,23.187998 159.498,23.596 C159.702001,24.004002 159.905999,24.4959971 160.11,25.072 C160.314001,25.6480029 160.553999,26.2539968 160.83,26.89 C161.106001,27.5260032 161.519997,28.0719977 162.072,28.528 C162.144,28.4319995 162.204,28.2520013 162.252,27.988 C162.3,27.7239987 162.336,27.496001 162.36,27.304 C162.384,27.1359992 162.42,26.8060025 162.468,26.314 C162.516,25.8219975 162.57,25.3000028 162.63,24.748 C162.69,24.1959972 162.738,23.6680025 162.774,23.164 C162.81,22.6599975 162.828,22.312001 162.828,22.12 C162.828,21.9759993 162.84,21.808001 162.864,21.616 C162.888,21.423999 162.942,21.2440008 163.026,21.076 C163.11,20.9079992 163.223999,20.7640006 163.368,20.644 C163.512001,20.5239994 163.703999,20.464 163.944,20.464 C164.064001,20.464 164.267999,20.5419992 164.556,20.698 C164.844001,20.8540008 164.988,21.0639987 164.988,21.328 Z M171.88,17.44 C171.88,17.4880002 171.796001,17.5839993 171.628,17.728 C171.459999,17.8720007 171.262001,18.0219992 171.034,18.178 C170.805999,18.3340008 170.572001,18.4719994 170.332,18.592 C170.091999,18.7120006 169.900001,18.772 169.756,18.772 C169.66,18.772 169.534001,18.7660001 169.378,18.754 C169.221999,18.7419999 169.066001,18.7000004 168.91,18.628 C168.753999,18.5559996 168.616001,18.4540007 168.496,18.322 C168.375999,18.1899993 168.316,18.0160011 168.316,17.8 C168.316,17.4639983 168.435999,17.1460015 168.676,16.846 C168.916001,16.5459985 169.227998,16.396 169.612,16.396 C169.684,16.396 169.845999,16.4259997 170.098,16.486 C170.350001,16.5460003 170.607999,16.6239995 170.872,16.72 C171.136001,16.8160005 171.369999,16.9239994 171.574,17.044 C171.778001,17.1640006 171.88,17.2959993 171.88,17.44 Z M173.068,30.904 C173.068,31.0720008 172.942001,31.2159994 172.69,31.336 C172.437999,31.4560006 172.252001,31.516 172.132,31.516 C171.891999,31.516 171.676001,31.3600016 171.484,31.048 C171.291999,30.7359984 171.124001,30.376002 170.98,29.968 C170.835999,29.559998 170.716,29.1700019 170.62,28.798 C170.524,28.4259981 170.452,28.1680007 170.404,28.024 C170.332,27.7839988 170.236001,27.4960017 170.116,27.16 C169.995999,26.8239983 169.882001,26.5000016 169.774,26.188 C169.665999,25.8759984 169.576,25.6000012 169.504,25.36 C169.432,25.1199988 169.396,24.9880001 169.396,24.964 C169.396,24.6279983 169.461999,24.3160014 169.594,24.028 C169.726001,23.7399986 169.887999,23.596 170.08,23.596 C170.296001,23.596 170.523999,23.7639983 170.764,24.1 C171.004001,24.4360017 171.237999,24.8619974 171.466,25.378 C171.694001,25.8940026 171.903999,26.4579969 172.096,27.07 C172.288001,27.6820031 172.455999,28.2579973 172.6,28.798 C172.744001,29.3380027 172.858,29.805998 172.942,30.202 C173.026,30.598002 173.068,30.8319996 173.068,30.904 Z M186.944,30.22 C186.968,30.2680002 186.98,30.3399995 186.98,30.436 C186.98,30.5800007 186.872001,30.7959986 186.656,31.084 C186.584,31.1800005 186.428001,31.3359989 186.188,31.552 C185.947999,31.7680011 185.624002,31.9839989 185.216,32.2 C184.807998,32.4160011 184.310003,32.6079992 183.722,32.776 C183.133997,32.9440008 182.444004,33.028 181.652,33.028 C181.099997,33.028 180.560003,32.9020013 180.032,32.65 C179.503997,32.3979987 179.036002,32.0260025 178.628,31.534 C178.219998,31.0419975 177.884001,30.4300037 177.62,29.698 C177.355999,28.9659963 177.224,28.1080049 177.224,27.124 C177.224,26.1879953 177.343999,25.3120041 177.584,24.496 C177.824001,23.6799959 178.129998,22.9600031 178.502,22.336 C178.874002,21.7119969 179.287998,21.2200018 179.744,20.86 C180.200002,20.4999982 180.643998,20.32 181.076,20.32 C181.460002,20.32 181.849998,20.3979992 182.246,20.554 C182.642002,20.7100008 183.001998,20.9079988 183.326,21.148 C183.650002,21.3880012 183.907999,21.6579985 184.1,21.958 C184.292001,22.2580015 184.388,22.5639984 184.388,22.876 C184.388,23.2360018 184.226002,23.6079981 183.902,23.992 C183.577998,24.3760019 183.188002,24.7299984 182.732,25.054 C182.275998,25.3780016 181.820002,25.641999 181.364,25.846 C180.907998,26.050001 180.548001,26.152 180.284,26.152 C180.139999,26.152 180.014001,26.0860007 179.906,25.954 C179.797999,25.8219993 179.744,25.660001 179.744,25.468 C179.744,25.1319983 179.893999,24.868001 180.194,24.676 C180.494002,24.483999 180.823998,24.3100008 181.184,24.154 C181.544002,23.9979992 181.873999,23.8120011 182.174,23.596 C182.474002,23.3799989 182.624,23.0800019 182.624,22.696 C182.624,22.6479998 182.564001,22.528001 182.444,22.336 C182.323999,22.143999 182.000003,22.048 181.472,22.048 C181.231999,22.048 180.956002,22.1859986 180.644,22.462 C180.331998,22.7380014 180.032001,23.1099977 179.744,23.578 C179.455999,24.0460023 179.216001,24.5979968 179.024,25.234 C178.831999,25.8700032 178.736,26.5599963 178.736,27.304 C178.736,27.9280031 178.849999,28.4919975 179.078,28.996 C179.306001,29.5000025 179.599998,29.9259983 179.96,30.274 C180.320002,30.6220017 180.739998,30.891999 181.22,31.084 C181.700002,31.276001 182.191997,31.372 182.696,31.372 C183.056002,31.372 183.445998,31.2940008 183.866,31.138 C184.286002,30.9819992 184.681998,30.8140009 185.054,30.634 C185.426002,30.4539991 185.749999,30.2860008 186.026,30.13 C186.302001,29.9739992 186.476,29.896 186.548,29.896 C186.62,29.896 186.698,29.9319996 186.782,30.004 C186.866,30.0760004 186.92,30.1479996 186.944,30.22 Z M199.596,23.02 C199.596,23.1880008 199.524001,23.3259995 199.38,23.434 C199.235999,23.5420005 199.068001,23.6319996 198.876,23.704 C198.683999,23.7760004 198.492001,23.8299998 198.3,23.866 C198.107999,23.9020002 197.952001,23.92 197.832,23.92 C197.471998,23.92 197.232001,23.8960002 197.112,23.848 C196.991999,23.7999998 196.896,23.776 196.824,23.776 C196.223997,23.776 195.744002,23.8239995 195.384,23.92 C195.023998,24.0160005 194.742001,24.1719989 194.538,24.388 C194.333999,24.6040011 194.202,24.8739984 194.142,25.198 C194.082,25.5220016 194.052,25.9119977 194.052,26.368 C194.052,27.1360038 194.082,27.7479977 194.142,28.204 C194.202,28.6600023 194.262,29.0319986 194.322,29.32 C194.382,29.6080014 194.442,29.8299992 194.502,29.986 C194.562,30.1420008 194.592,30.2919993 194.592,30.436 C194.592,30.628001 194.490001,30.8319989 194.286,31.048 C194.081999,31.2640011 193.896001,31.372 193.728,31.372 C193.439999,31.372 193.182001,31.1140026 192.954,30.598 C192.725999,30.0819974 192.534001,29.4700035 192.378,28.762 C192.221999,28.0539965 192.096,27.3520035 192,26.656 C191.904,25.9599965 191.856,25.4320018 191.856,25.072 C191.856,24.663998 191.892,24.2740019 191.964,23.902 C192.036,23.5299981 192.131999,23.2060014 192.252,22.93 C192.372001,22.6539986 192.503999,22.4320008 192.648,22.264 C192.792001,22.0959992 192.935999,22.012 193.08,22.012 C193.200001,22.012 193.296,22.0539996 193.368,22.138 C193.44,22.2220004 193.5,22.3179995 193.548,22.426 C193.596,22.5340005 193.65,22.6299996 193.71,22.714 C193.77,22.7980004 193.848,22.84 193.944,22.84 C194.160001,22.84 194.507998,22.7320011 194.988,22.516 C195.468002,22.2999989 196.055997,22.192 196.752,22.192 C197.400003,22.192 197.885998,22.2099998 198.21,22.246 C198.534002,22.2820002 198.851998,22.3599994 199.164,22.48 C199.236,22.5040001 199.325999,22.5579996 199.434,22.642 C199.542001,22.7260004 199.596,22.8519992 199.596,23.02 Z M237.824,35.944 C237.872,36.0880007 237.92,36.2199994 237.968,36.34 C238.016,36.4600006 238.058,36.5919993 238.094,36.736 C238.13,36.8800007 238.148,37.0119994 238.148,37.132 C238.148,37.3000008 238.088001,37.4379995 237.968,37.546 C237.847999,37.6540005 237.710001,37.7439996 237.554,37.816 C237.397999,37.8880004 237.248001,37.9359999 237.104,37.96 C236.959999,37.9840001 236.876,37.996 236.852,37.996 C236.707999,37.996 236.444002,37.5580044 236.06,36.682 C235.675998,35.8059956 235.262002,34.5760079 234.818,32.992 C234.373998,31.4079921 233.924002,29.5240109 233.468,27.34 C233.011998,25.1559891 232.640001,22.7560131 232.352,20.14 C232.304,20.6920028 232.214001,21.3339963 232.082,22.066 C231.949999,22.7980037 231.752001,23.4879968 231.488,24.136 C231.223999,24.7840032 230.882002,25.3299978 230.462,25.774 C230.041998,26.2180022 229.508003,26.44 228.86,26.44 C228.403998,26.44 227.888003,26.2000024 227.312,25.72 C226.735997,25.2399976 226.178003,24.6700033 225.638,24.01 C225.097997,23.3499967 224.606002,22.6780034 224.162,21.994 C223.717998,21.3099966 223.388001,20.7520022 223.172,20.32 C223.268,21.3760053 223.429999,22.6479926 223.658,24.136 C223.886001,25.6240074 224.239998,27.1959917 224.72,28.852 C224.768,29.0200008 224.822,29.1459996 224.882,29.23 C224.942,29.3140004 225.002,29.4039995 225.062,29.5 C225.122,29.5960005 225.17,29.6979995 225.206,29.806 C225.242,29.9140005 225.26,30.0759989 225.26,30.292 C225.26,30.6040016 225.140001,30.8319993 224.9,30.976 C224.659999,31.1200007 224.432001,31.192 224.216,31.192 C224.095999,31.192 223.940001,31.0060019 223.748,30.634 C223.555999,30.2619981 223.352001,29.776003 223.136,29.176 C222.919999,28.575997 222.704001,27.9100037 222.488,27.178 C222.271999,26.4459963 222.074001,25.7200036 221.894,25 C221.713999,24.2799964 221.564001,23.6020032 221.444,22.966 C221.323999,22.3299968 221.264,21.8200019 221.264,21.436 C221.264,20.8119969 221.294,20.3800012 221.354,20.14 C221.414,19.8999988 221.503999,19.7200006 221.624,19.6 L221.624,17.404 C221.624,17.0679983 221.713999,16.8100009 221.894,16.63 C222.074001,16.4499991 222.307999,16.36 222.596,16.36 C222.836001,16.36 223.111998,16.563998 223.424,16.972 C223.736002,17.380002 224.077998,17.8959969 224.45,18.52 C224.822002,19.1440031 225.211998,19.8159964 225.62,20.536 C226.028002,21.2560036 226.429998,21.9279969 226.826,22.552 C227.222002,23.1760031 227.605998,23.691998 227.978,24.1 C228.350002,24.508002 228.703998,24.712 229.04,24.712 C229.352002,24.712 229.651999,24.4180029 229.94,23.83 C230.228001,23.2419971 230.497999,22.468 230.75,21.508 C231.002001,20.5479952 231.223999,19.4560061 231.416,18.232 C231.608001,17.0079939 231.764,15.7600064 231.884,14.488 C231.884,14.3439993 231.872,14.1820009 231.848,14.002 C231.824,13.8219991 231.812,13.6240011 231.812,13.408 C231.812,13.1199986 231.877999,12.8080017 232.01,12.472 C232.142001,12.1359983 232.399998,11.968 232.784,11.968 C233.000001,11.968 233.173999,12.0279994 233.306,12.148 C233.438001,12.2680006 233.528,12.4179991 233.576,12.598 C233.624,12.7780009 233.654,12.9579991 233.666,13.138 C233.678,13.3180009 233.684,13.468 233.684,13.588 C233.684,13.780001 233.666,14.0979978 233.63,14.542 C233.594,14.9860022 233.576,15.6639954 233.576,16.576 C233.576,17.368004 233.635999,18.2859948 233.756,19.33 C233.876001,20.3740052 234.037999,21.4779942 234.242,22.642 C234.446001,23.8060058 234.685999,25.0059938 234.962,26.242 C235.238001,27.4780062 235.537998,28.6839941 235.862,29.86 C236.186002,31.0360059 236.509998,32.1459948 236.834,33.19 C237.158002,34.2340052 237.487998,35.151996 237.824,35.944 Z M247.092,26.224 C247.092,26.7520026 247.020001,27.2559976 246.876,27.736 C246.731999,28.2160024 246.540001,28.6359982 246.3,28.996 C246.059999,29.3560018 245.778002,29.637999 245.454,29.842 C245.129998,30.046001 244.776002,30.148 244.392,30.148 C243.719997,30.148 243.192002,29.9560019 242.808,29.572 C242.423998,29.1879981 242.130001,28.7440025 241.926,28.24 C241.721999,27.7359975 241.59,27.2260026 241.53,26.71 C241.47,26.1939974 241.44,25.8040013 241.44,25.54 C241.44,25.1079978 241.505999,24.6220027 241.638,24.082 C241.770001,23.5419973 241.949999,23.0440023 242.178,22.588 C242.406001,22.1319977 242.663999,21.7480016 242.952,21.436 C243.240001,21.1239984 243.539998,20.968 243.852,20.968 C243.924,20.968 244.037999,20.9919998 244.194,21.04 C244.350001,21.0880002 244.511999,21.1599995 244.68,21.256 C244.848001,21.3520005 244.997999,21.4719993 245.13,21.616 C245.262001,21.7600007 245.352,21.927999 245.4,22.12 C245.664001,22.1440001 245.927999,22.2399992 246.192,22.408 C246.456001,22.5760008 246.6,22.7079995 246.624,22.804 C246.816001,23.4280031 246.942,24.0519969 247.002,24.676 C247.062,25.3000031 247.092,25.815998 247.092,26.224 Z M245.472,25.576 C245.472,25.2159982 245.436,24.838002 245.364,24.442 C245.292,24.045998 245.148001,23.644002 244.932,23.236 C244.884,23.2600001 244.824,23.272 244.752,23.272 C244.656,23.272 244.578,23.2600001 244.518,23.236 C244.458,23.2119999 244.404,23.2 244.356,23.2 C244.067999,23.2 243.840001,23.2779992 243.672,23.434 C243.503999,23.5900008 243.378,23.7939987 243.294,24.046 C243.21,24.2980013 243.156,24.5679986 243.132,24.856 C243.108,25.1440014 243.096,25.4199987 243.096,25.684 C243.096,25.9480013 243.108,26.2419984 243.132,26.566 C243.156,26.8900016 243.21,27.1959986 243.294,27.484 C243.378,27.7720014 243.491999,28.017999 243.636,28.222 C243.780001,28.426001 243.971999,28.528 244.212,28.528 C244.452001,28.528 244.655999,28.4020013 244.824,28.15 C244.992001,27.8979987 245.124,27.6040017 245.22,27.268 C245.316,26.9319983 245.382,26.6020016 245.418,26.278 C245.454,25.9539984 245.472,25.7200007 245.472,25.576 Z M262.516,28.204 C262.516,28.3240006 262.462001,28.4379995 262.354,28.546 C262.245999,28.6540005 262.18,28.7679994 262.156,28.888 C262.156,29.1520013 262.209999,29.4039988 262.318,29.644 C262.426001,29.8840012 262.48,30.1719983 262.48,30.508 C262.48,30.8200016 262.384001,30.976 262.192,30.976 C261.951999,30.976 261.778001,31.0059997 261.67,31.066 C261.561999,31.1260003 261.376001,31.1799998 261.112,31.228 C260.967999,31.228 260.812001,31.0960013 260.644,30.832 C260.548,30.7119994 260.464,30.5680008 260.392,30.4 C260.392,30.3759999 260.326001,30.4239994 260.194,30.544 C260.061999,30.6640006 259.846002,30.8019992 259.546,30.958 C259.245999,31.1140008 258.838003,31.2579993 258.322,31.39 C257.805997,31.5220007 257.152004,31.588 256.36,31.588 C255.687997,31.588 255.100003,31.4380015 254.596,31.138 C254.091997,30.8379985 253.678002,30.4480024 253.354,29.968 C253.029998,29.4879976 252.790001,28.9420031 252.634,28.33 C252.477999,27.7179969 252.4,27.1000031 252.4,26.476 C252.4,25.8999971 252.465999,25.3540026 252.598,24.838 C252.730001,24.3219974 252.915999,23.866002 253.156,23.47 C253.396001,23.073998 253.695998,22.7560012 254.056,22.516 C254.416002,22.2759988 254.835998,22.156 255.316,22.156 C255.772002,22.156 256.227998,22.2999986 256.684,22.588 C257.140002,22.8760014 257.547998,23.1879983 257.908,23.524 C258.268002,23.8600017 258.561999,24.1659986 258.79,24.442 L259.132,24.856 C258.795998,22.9839906 258.496001,21.2920076 258.232,19.78 C258.111999,19.1319968 257.998001,18.4900032 257.89,17.854 C257.781999,17.2179968 257.68,16.6480025 257.584,16.144 C257.488,15.6399975 257.41,15.2140017 257.35,14.866 C257.29,14.5179983 257.26,14.3080004 257.26,14.236 C257.236,14.0919993 257.212,13.8340019 257.188,13.462 C257.164,13.0899981 257.14,12.700002 257.116,12.292 C257.092,11.883998 257.068,11.5120017 257.044,11.176 C257.02,10.8399983 256.996,10.6240005 256.972,10.528 C256.9,10.2879988 256.810001,9.9880018 256.702,9.628 C256.593999,9.2679982 256.54,9.06400024 256.54,9.016 C256.54,8.8959994 256.599999,8.7460009 256.72,8.566 C256.840001,8.3859991 256.995999,8.296 257.188,8.296 C257.332001,8.296 257.463999,8.30799988 257.584,8.332 C257.704001,8.35600012 257.812,8.4279994 257.908,8.548 C258.004,8.6680006 258.094,8.85399874 258.178,9.106 C258.262,9.35800126 258.34,9.71199772 258.412,10.168 C258.436,10.4080012 258.507999,10.8639966 258.628,11.536 C258.748001,12.2080034 258.867999,12.939996 258.988,13.732 C259.108001,14.524004 259.227999,15.2799964 259.348,16 C259.468001,16.7200036 259.552,17.2479983 259.6,17.584 C259.720001,18.4960046 259.881999,19.4859947 260.086,20.554 C260.290001,21.6220053 260.499999,22.6479951 260.716,23.632 C260.932001,24.6160049 261.147999,25.4859962 261.364,26.242 C261.580001,26.9980038 261.771999,27.5079987 261.94,27.772 C261.988,27.8680005 262.083999,27.9339998 262.228,27.97 C262.372001,28.0060002 262.468,28.0839994 262.516,28.204 Z M259.852,28.924 C259.828,28.8519996 259.678001,28.5460027 259.402,28.006 C259.125999,27.4659973 258.778002,26.8780032 258.358,26.242 C257.937998,25.6059968 257.470003,25.0360025 256.954,24.532 C256.437997,24.0279975 255.940002,23.776 255.46,23.776 C255.051998,23.776 254.722001,24.0879969 254.47,24.712 C254.217999,25.3360031 254.092,26.0559959 254.092,26.872 C254.092,27.7840046 254.361997,28.5159972 254.902,29.068 C255.442003,29.6200028 256.047997,29.896 256.72,29.896 C257.296003,29.896 257.895997,29.800001 258.52,29.608 C259.144003,29.415999 259.587999,29.1880013 259.852,28.924 Z M269.192,31.696 C269.192,31.8400007 269.120001,31.9779993 268.976,32.11 C268.831999,32.2420007 268.670001,32.3619995 268.49,32.47 C268.309999,32.5780005 268.136001,32.6619997 267.968,32.722 C267.799999,32.7820003 267.704,32.812 267.68,32.812 C267.463999,32.812 267.302001,32.7580005 267.194,32.65 C267.085999,32.5419995 267.002,32.4220007 266.942,32.29 C266.882,32.1579993 266.846,32.0320006 266.834,31.912 C266.822,31.792 266.816,31.7080002 266.816,31.66 C266.816,31.5639995 266.84,31.4380008 266.888,31.282 C266.936,31.1259992 267.008,30.9760007 267.104,30.832 C267.2,30.6879993 267.313999,30.5620005 267.446,30.454 C267.578001,30.3459995 267.727999,30.292 267.896,30.292 C268.208002,30.292 268.501999,30.4239987 268.778,30.688 C269.054001,30.9520013 269.192,31.287998 269.192,31.696 Z" id="Hi.I’mXavierMod."></path>
                </g>
            </g>
        </g>
    </g>
</svg>