<?xml version="1.0" encoding="UTF-8"?>
<svg width="17px" height="17px" viewBox="0 0 17 17" version="1.1" xmlns="http://www.w3.org/2000/svg" xmlns:xlink="http://www.w3.org/1999/xlink">
    <!-- Generator: Sketch 56.3 (81716) - https://sketch.com -->
    <title>linkedin</title>
    <desc>Created with Sketch.</desc>
    <g id="Page-1" stroke="none" stroke-width="1" fill="none" fill-rule="evenodd">
        <g id="Desktop" transform="translate(-970.000000, -86.000000)" fill="#000000" fill-rule="nonzero">
            <g id="Group-5" transform="translate(969.000000, 44.000000)">
                <g id="linkedin" transform="translate(1.000000, 42.000000)">
                    <path d="M13.8535833,13.856971 L11.4456196,13.856971 L11.4456196,10.0837717 C11.4456196,9.18400362 11.4273261,8.0260942 10.1908225,8.0260942 C8.93534783,8.0260942 8.74360507,9.00513406 8.74360507,10.0173732 L8.74360507,13.856971 L6.3356413,13.856971 L6.3356413,6.09782609 L8.64875,6.09782609 L8.64875,7.15546014 L8.67991667,7.15546014 C9.00310145,6.54567754 9.78904348,5.90201812 10.9632138,5.90201812 C13.4030217,5.90201812 13.8542609,7.50777899 13.8542609,9.59797826 L13.8542609,13.856971 L13.8535833,13.856971 Z M3.61601087,5.03612681 C2.84090942,5.03612681 2.21825362,4.40872826 2.21825362,3.63701449 C2.21825362,2.86597826 2.84158696,2.23925725 3.61601087,2.23925725 C4.38840217,2.23925725 5.01444565,2.86597826 5.01444565,3.63701449 C5.01444565,4.40872826 4.38772464,5.03612681 3.61601087,5.03612681 Z M4.82338043,13.856971 L2.4086413,13.856971 L2.4086413,6.09782609 L4.82338043,6.09782609 L4.82338043,13.856971 Z M15.0582428,0 L1.19991667,0 C0.536608696,0 0,0.524413043 0,1.17146014 L0,15.0894094 C0,15.7371341 0.536608696,16.2608696 1.19991667,16.2608696 L15.0562101,16.2608696 C15.7188406,16.2608696 16.2608696,15.7371341 16.2608696,15.0894094 L16.2608696,1.17146014 C16.2608696,0.524413043 15.7188406,0 15.0562101,0 L15.0582428,0 Z" id="Shape"></path>
                </g>
            </g>
        </g>
    </g>
</svg>