<?xml version="1.0" encoding="UTF-8"?>
<svg width="890px" height="374px" viewBox="0 0 890 374" version="1.1" xmlns="http://www.w3.org/2000/svg" xmlns:xlink="http://www.w3.org/1999/xlink">
    <!-- Generator: Sketch 56.3 (81716) - https://sketch.com -->
    <title>profle</title>
    <desc>Created with Sketch.</desc>
    <g id="Page-1" stroke="none" stroke-width="1" fill="none" fill-rule="evenodd">
        <g id="Desktop-Copy" transform="translate(-36.000000, -308.000000)" fill="#FFFFFF" fill-rule="nonzero">
            <path d="M36.833517,658.288 L36.833517,653.08 L41.297517,653.08 C57.665517,653.08 61.385517,648.988 61.385517,631.876 L61.385517,452.944 C61.385517,435.832 57.665517,431.74 41.297517,431.74 L38.693517,431.74 L38.693517,426.904 L87.053517,423.928 L85.937517,461.872 L86.681517,461.872 C98.585517,438.808 114.581517,422.812 138.761517,422.812 C169.265517,422.812 203.861517,454.432 203.861517,504.28 C203.861517,553.384 170.009517,586.12 137.273517,586.12 C111.977517,586.12 96.353517,568.636 86.309517,545.944 L85.937517,545.944 C85.937517,545.944 87.425517,569.008 87.425517,592.444 L87.425517,631.876 C87.425517,648.988 91.145517,653.08 107.513517,653.08 L116.069517,653.08 L116.069517,658.288 L36.833517,658.288 Z M134.297517,580.168 C162.941517,580.168 172.613517,545.2 172.613517,505.024 C172.613517,466.336 163.685517,428.764 135.041517,428.764 C116.813517,428.764 87.053517,450.34 87.053517,504.652 C87.053517,542.968 107.513517,580.168 134.297517,580.168 Z M217.625517,582.4 L217.625517,577.192 L220.229517,577.192 C236.597517,577.192 240.317517,573.1 240.317517,556.36 L240.317517,452.2 C240.317517,435.46 235.853517,431.368 220.229517,431.368 L217.625517,431.368 L217.625517,426.904 L267.101517,423.928 L264.497517,486.796 L265.241517,486.796 C276.773517,446.248 295.373517,422.068 319.925517,422.068 C338.897517,422.068 349.685517,433.228 349.685517,446.248 C349.685517,460.756 341.501517,468.196 331.085517,468.196 C321.785517,468.196 314.345517,462.244 314.345517,452.944 C314.345517,444.76 318.809517,441.04 322.157517,438.064 C324.017517,436.576 325.133517,435.46 325.133517,433.6 C325.133517,430.624 321.413517,429.88 316.949517,429.88 C290.165517,429.88 267.473517,482.704 267.473517,512.092 L267.473517,556.36 C267.473517,573.1 271.193517,577.192 287.561517,577.192 L296.117517,577.192 L296.117517,582.4 L217.625517,582.4 Z M430.409517,587.98 C395.441517,587.98 357.497517,551.524 357.497517,504.28 C357.497517,455.92 395.441517,421.324 430.409517,421.324 C465.377517,421.324 502.949517,455.176 502.949517,503.536 C502.949517,550.78 465.377517,587.98 430.409517,587.98 Z M430.409517,582.772 C461.285517,582.772 471.701517,547.432 471.701517,504.652 C471.701517,461.5 460.541517,426.532 430.409517,426.532 C400.277517,426.532 389.117517,460.756 389.117517,503.908 C389.117517,546.688 399.533517,582.772 430.409517,582.772 Z M521.177517,582.4 L521.177517,576.82 L524.153517,576.82 C540.521517,576.82 544.241517,572.356 544.241517,555.616 L544.241517,432.484 L521.177517,432.484 L521.177517,426.904 L544.241517,426.904 L544.241517,407.932 C544.241517,357.34 568.049517,322.744 615.665517,322.744 C648.773517,322.744 664.397517,338.74 664.397517,353.248 C664.397517,363.664 656.213517,371.104 647.657517,371.104 C638.357517,371.104 630.545517,365.896 630.545517,355.852 C630.545517,349.528 633.521517,345.436 636.497517,342.832 C638.357517,341.344 639.845517,339.856 639.845517,338.368 C639.845517,333.532 630.545517,327.952 614.177517,327.952 C583.673517,327.952 571.025517,355.108 571.025517,396.4 L571.025517,426.904 L614.549517,426.904 L667.745517,423.556 L667.745517,555.616 C667.745517,572.356 671.465517,576.82 687.833517,576.82 L690.809517,576.82 L690.809517,582.4 L617.897517,582.4 L617.897517,576.82 L620.873517,576.82 C637.241517,576.82 640.961517,572.356 640.961517,555.616 L640.961517,454.06 C640.961517,436.576 637.241517,432.484 620.873517,432.484 L571.025517,432.484 L571.025517,555.616 C571.025517,572.356 574.745517,576.82 591.113517,576.82 L600.041517,576.82 L600.041517,582.4 L521.177517,582.4 Z M700.481517,582.4 L700.481517,577.192 L701.969517,577.192 C718.709517,577.192 722.429517,572.728 722.429517,554.872 L722.429517,355.108 C722.429517,337.252 718.709517,332.788 701.969517,332.788 L698.993517,332.788 L698.993517,327.58 L748.841517,322 L748.841517,554.872 C748.841517,572.728 752.561517,577.192 768.929517,577.192 L771.905517,577.192 L771.905517,582.4 L700.481517,582.4 Z M855.605517,587.98 C812.825517,587.98 784.925517,556.36 784.925517,505.396 C784.925517,455.176 819.893517,421.324 857.093517,421.324 C886.853517,421.324 921.077517,444.388 921.077517,492.376 C921.077517,493.492 920.705517,501.676 920.333517,503.536 L815.429517,503.536 C815.429517,544.456 831.797517,576.076 863.789517,576.076 C892.433517,576.076 906.941517,561.568 919.217517,543.712 L923.309517,546.688 C909.545517,569.752 887.969517,587.98 855.605517,587.98 Z M815.429517,497.584 L871.229517,497.584 C886.109517,497.584 890.201517,492.748 890.201517,480.844 C890.201517,451.084 879.785517,426.904 855.977517,426.904 C829.937517,426.904 816.545517,454.804 815.429517,497.584 Z" id="profle" transform="translate(480.071517, 490.144000) rotate(-3.000000) translate(-480.071517, -490.144000) "></path>
        </g>
    </g>
</svg>