<?xml version="1.0" encoding="UTF-8"?>
<svg width="46px" height="31px" viewBox="0 0 46 31" version="1.1" xmlns="http://www.w3.org/2000/svg" xmlns:xlink="http://www.w3.org/1999/xlink">
    <!-- Generator: Sketch 56.3 (81716) - https://sketch.com -->
    <title>XM</title>
    <desc>Created with Sketch.</desc>
    <g id="Page-1" stroke="none" stroke-width="1" fill="none" fill-rule="evenodd">
        <g id="Desktop" transform="translate(-28.000000, -30.000000)" fill="#000000" fill-rule="nonzero">
            <path d="M46.4817514,54.4606142 C46.4817514,54.7641315 46.3929634,54.9434799 46.2153847,54.9986649 C46.037806,55.0538499 45.8807195,55.0814419 45.7441205,55.0814419 C45.6894809,55.0814419 45.327499,54.7779292 44.6581639,54.1708945 C43.9888289,53.5638599 43.1965666,52.8464661 42.2813533,52.0186916 C41.3661401,51.1909171 40.4441107,50.363155 39.5152375,49.5353805 C38.5863644,48.707606 37.8350812,48.0729884 37.2613654,47.6315087 C37.2886852,48.0178034 37.3296643,48.4799706 37.3843039,49.018024 C37.4389435,49.5560775 37.4935823,50.0803268 37.5482219,50.5907877 C37.6028615,51.1012487 37.6506704,51.5565178 37.6916501,51.9566088 C37.7326298,52.3566998 37.7531193,52.6395185 37.7531193,52.8050734 C37.7531193,53.2189607 37.6643313,53.5776576 37.4867526,53.8811749 C37.309174,54.1846922 37.0291502,54.3364486 36.646673,54.3364486 C36.373475,54.3364486 36.2027289,54.3019585 36.1344294,54.2329773 C36.0661299,54.1639961 36.0046612,53.9777496 35.9500217,53.6742323 C35.8680623,53.2603451 35.7861041,52.7016057 35.7041447,51.9979973 C35.6221853,51.294389 35.5538868,50.5494031 35.4992472,49.7630174 C35.4446076,48.9766316 35.3967987,48.2109517 35.355819,47.4659546 C35.3148393,46.7209576 35.2806901,46.113932 35.2533703,45.6448598 L34.4337804,44.6515354 C34.0239834,44.1548707 33.552724,43.5616412 33.0199879,42.8718291 C32.4872518,42.182017 31.9272044,41.4370311 31.3398287,40.6368491 C30.752453,39.8366671 30.2128951,39.0640892 29.7211387,38.3190921 C29.2293823,37.5740951 28.8195915,36.8980894 28.4917539,36.2910547 C28.1639163,35.6840201 28,35.228751 28,34.9252336 C28,34.7044938 28.1092776,34.4354711 28.3278359,34.1181575 C28.5463943,33.800844 28.7786091,33.6421896 29.0244873,33.6421896 C29.2430457,33.6421896 29.5640485,34.0008865 29.9875054,34.7182911 C30.4109623,35.4356956 30.9095411,36.2772537 31.4832569,37.2429907 C32.0569727,38.2087276 32.6716589,39.1951441 33.3273341,40.2022697 C33.9830093,41.2093953 34.6386746,42.0164634 35.2943498,42.623498 C35.3489894,42.0992408 35.3694789,41.6025836 35.355819,41.1335113 C35.3421591,40.6644391 35.348989,40.20917 35.3763087,39.7676903 C35.3763087,39.5469504 35.3899684,39.1468654 35.4172882,38.5674232 C35.444608,37.9879811 35.4855871,37.3326694 35.5402267,36.6014686 C35.5948663,35.8702678 35.6699946,35.1183839 35.7656139,34.3457944 C35.8612332,33.5732049 35.9978302,32.8627091 36.1754089,32.2142857 C36.3529876,31.5658624 36.557883,31.034715 36.7901013,30.6208278 C37.0223195,30.2069405 37.316003,30 37.6711604,30 C37.8897187,30 38.0263157,30.1655524 38.0809553,30.4966622 C38.1355949,30.827772 38.1629143,31.0485086 38.1629143,31.1588785 C38.1629143,32.1798004 38.1014457,33.1593189 37.9785066,34.0974633 C37.8555675,35.0356077 37.7258004,35.9944321 37.5892014,36.9739653 C37.4526024,37.9534984 37.3228353,38.9950991 37.1998962,40.0987984 C37.0769571,41.2024977 37.0154885,42.4303448 37.0154885,43.7823765 L37.0154885,44.0307076 C37.0154885,44.1134851 37.0428079,44.2238533 37.0974475,44.3618158 C37.2067267,44.6101481 37.5208996,44.982641 38.0399758,45.4793057 C38.559052,45.9759704 39.1669084,46.5347098 39.8635632,47.1555407 C40.5602181,47.7763716 41.2978416,48.4316832 42.0764559,49.1214953 C42.8550701,49.8113074 43.5722041,50.4942111 44.2278792,51.170227 C44.8835544,51.8462428 45.4231123,52.4670644 45.8465692,53.0327103 C46.2700261,53.5983562 46.4817514,54.0743194 46.4817514,54.4606142 Z M68.9695077,58.6408545 C69.0241473,58.8064094 69.0787861,58.9581658 69.1334257,59.0961282 C69.1880653,59.2340906 69.2358742,59.385847 69.2768539,59.5514019 C69.3178336,59.7169568 69.3383231,59.8687132 69.3383231,60.0066756 C69.3383231,60.199823 69.2700247,60.3584773 69.1334257,60.4826435 C68.9968267,60.6068097 68.8397402,60.71028 68.6621615,60.7930574 C68.4845828,60.8758344 68.3138366,60.931019 68.1499178,60.9586115 C67.9859991,60.986204 67.8903812,61 67.8630614,61 C67.6991426,61 67.3986293,60.4964447 66.9615125,59.4893191 C66.5243958,58.4821935 66.0531363,57.0680999 65.54772,55.246996 C65.0423038,53.4258921 64.5300652,51.2599146 64.010989,48.7489987 C63.4919129,46.2380827 63.0684623,43.4788757 62.7406248,40.4712951 C62.6859852,41.1059222 62.5835375,41.84401 62.4332786,42.6855808 C62.2830197,43.5271515 62.0576347,44.3204235 61.7571169,45.0654206 C61.4565991,45.8104176 61.0672979,46.4381372 60.5892014,46.9485981 C60.1111049,47.4590591 59.5032485,47.7142857 58.7656139,47.7142857 C58.2465378,47.7142857 57.6591709,47.438365 57.0034957,46.8865154 C56.3478206,46.3346657 55.7126448,45.679354 55.0979493,44.9205607 C54.4832538,44.1617675 53.9232064,43.3891895 53.4177901,42.6028037 C52.9123738,41.816418 52.5367322,41.1749023 52.290854,40.6782377 C52.4001332,41.8923069 52.5845391,43.3546866 52.8440772,45.0654206 C53.1036153,46.7761545 53.5065763,48.5834351 54.0529722,50.4873164 C54.1076118,50.6804638 54.1690805,50.8253222 54.23738,50.9218959 C54.3056794,51.0184696 54.3739779,51.1219398 54.4422774,51.2323097 C54.5105769,51.3426797 54.5652157,51.459946 54.6061954,51.5841121 C54.6471751,51.7082783 54.6676646,51.8945248 54.6676646,52.1428571 C54.6676646,52.5015594 54.5310677,52.7636841 54.2578697,52.929239 C53.9846717,53.0947939 53.7251375,53.1775701 53.4792593,53.1775701 C53.3426603,53.1775701 53.1650843,52.9637316 52.9465259,52.5360481 C52.7279675,52.1083646 52.4957527,51.5496252 52.2498745,50.8598131 C52.0039964,50.170001 51.7581219,49.4043211 51.5122437,48.5627503 C51.2663655,47.7211796 51.0409805,46.8865195 50.836082,46.058745 C50.6311835,45.2309705 50.4604374,44.4514945 50.3238384,43.7202937 C50.1872394,42.9890929 50.1189409,42.4027614 50.1189409,41.9612817 C50.1189409,41.2438771 50.1530901,40.7472199 50.2213896,40.4712951 C50.2896891,40.1953702 50.3921368,39.9884297 50.5287358,39.8504673 L50.5287358,37.3257677 C50.5287358,36.9394729 50.6311835,36.6428582 50.836082,36.4359146 C51.0409805,36.2289709 51.3073446,36.1255007 51.6351821,36.1255007 C51.9083801,36.1255007 52.2225531,36.3600333 52.5777105,36.8291055 C52.9328679,37.2981777 53.3221692,37.8914072 53.745626,38.6088117 C54.1690829,39.3262163 54.613023,40.0987943 55.0774596,40.9265688 C55.5418961,41.7543433 55.9994959,42.5269212 56.4502726,43.2443258 C56.9010493,43.9617303 57.3381595,44.5549598 57.7616164,45.024032 C58.1850732,45.4931043 58.5880342,45.7276368 58.9705114,45.7276368 C59.3256688,45.7276368 59.6671611,45.389634 59.9949987,44.7136182 C60.3228363,44.0376023 60.6301794,43.1477581 60.9170373,42.0440587 C61.2038952,40.9403594 61.4565996,39.6849203 61.6751579,38.2777036 C61.8937163,36.870487 62.0712924,35.4356993 62.2078913,33.9732977 C62.2078913,33.8077428 62.1942317,33.6214964 62.1669119,33.4145527 C62.1395921,33.2076091 62.1259324,32.9799745 62.1259324,32.7316422 C62.1259324,32.4005324 62.2010607,32.0418355 62.3513196,31.6555407 C62.5015785,31.269246 62.7952619,31.0761015 63.2323787,31.0761015 C63.4782569,31.0761015 63.6763224,31.1450816 63.8265813,31.2830441 C63.9768402,31.4210065 64.0792879,31.5934569 64.1339275,31.8004005 C64.1885671,32.0073442 64.2227164,32.2142847 64.2363763,32.4212283 C64.2500362,32.6281719 64.256866,32.8006224 64.256866,32.9385848 C64.256866,33.1593246 64.2363765,33.5249196 64.1953968,34.0353805 C64.1544171,34.5458414 64.1339275,35.3253174 64.1339275,36.3738318 C64.1339275,37.2843837 64.202226,38.3397804 64.338825,39.5400534 C64.475424,40.7403264 64.6598299,42.0095616 64.8920481,43.3477971 C65.1242664,44.6860325 65.3974603,46.065636 65.711638,47.4866489 C66.0258157,48.9076618 66.3673081,50.2941632 66.7361253,51.6461949 C67.1049426,52.9982266 67.4737544,54.2743598 67.8425716,55.4746328 C68.2113889,56.6749059 68.5870305,57.7303025 68.9695077,58.6408545 Z M74,53.7570093 C74,53.9225642 73.9180418,54.0812186 73.754123,54.2329773 C73.5902042,54.384736 73.4057984,54.5226963 73.2008999,54.6468625 C72.9960014,54.7710287 72.7979358,54.8676009 72.6066972,54.9365821 C72.4154586,55.0055633 72.3061811,55.0400534 72.2788613,55.0400534 C72.0329831,55.0400534 71.8485772,54.9779712 71.7256381,54.8538051 C71.602699,54.7296389 71.5070812,54.5916786 71.4387817,54.4399199 C71.3704822,54.2881612 71.3295031,54.1433029 71.3158432,54.0053405 C71.3021833,53.867378 71.2953535,53.7708058 71.2953535,53.7156208 C71.2953535,53.6052509 71.3226728,53.4603925 71.3773124,53.2810414 C71.431952,53.1016902 71.5139102,52.9292398 71.6231894,52.7636849 C71.7324686,52.59813 71.8622357,52.4532716 72.0124946,52.3291055 C72.1627535,52.2049393 72.3334997,52.1428571 72.5247383,52.1428571 C72.8798956,52.1428571 73.2145581,52.2946135 73.5287358,52.5981308 C73.8429135,52.9016482 74,53.2879371 74,53.7570093 Z" id="XM."></path>
        </g>
    </g>
</svg>