<?xml version="1.0" encoding="UTF-8"?>
<svg width="90px" height="90px" viewBox="0 0 90 90" version="1.1" xmlns="http://www.w3.org/2000/svg" xmlns:xlink="http://www.w3.org/1999/xlink">
    <!-- Generator: Sketch 58 (84663) - https://sketch.com -->
    <title>Group 4</title>
    <desc>Created with Sketch.</desc>
    <g id="Page-1" stroke="none" stroke-width="1" fill="none" fill-rule="evenodd">
        <g id="Desktop-Copy-4" transform="translate(-50.000000, -452.000000)">
            <g id="Group-4" transform="translate(95.000000, 497.000000) rotate(-180.000000) translate(-95.000000, -497.000000) translate(50.000000, 452.000000)">
                <rect id="Rectangle" fill="#FFFFFF" x="0" y="0" width="90" height="90"></rect>
                <g id="arrow-forward-outline" transform="translate(27.000000, 27.000000)" fill="#000000" fill-rule="nonzero">
                    <polygon id="Rectangle" opacity="0" transform="translate(18.000000, 18.000000) rotate(-90.000000) translate(-18.000000, -18.000000) " points="7.71382958e-12 -6.6138914e-15 36 -6.6138914e-15 36 36 7.71382958e-12 36"></polygon>
                    <path d="M7.5,19.9989085 L25.29,19.9989085 L19.845,26.538312 C19.3148066,27.1761427 19.4021111,28.1229741 20.04,28.6531191 C20.6778889,29.1832641 21.6248066,29.0959676 22.155,28.4581369 L29.655,19.4589577 C29.705459,19.3873777 29.7505809,19.3121815 29.79,19.2339782 C29.79,19.1589851 29.865,19.1139892 29.895,19.038996 C29.9629898,18.8670237 29.9985883,18.6839621 30,18.4990453 C29.9985883,18.3141284 29.9629898,18.1310668 29.895,17.9590945 C29.895,17.8841013 29.82,17.8391054 29.79,17.7641123 C29.7505809,17.685909 29.705459,17.6107128 29.655,17.5391328 L22.155,8.53995362 C21.8694653,8.19717474 21.4461484,7.99927839 21,8 C20.6495218,7.99931816 20.3098681,8.12137007 20.04,8.3449714 C19.7332393,8.59927045 19.5402782,8.96516601 19.5036946,9.36192141 C19.467111,9.75867682 19.5899116,10.1536825 19.845,10.4597785 L25.29,16.9991821 L7.5,16.9991821 C6.67157288,16.9991821 6,17.6706937 6,18.4990453 C6,19.3273968 6.67157288,19.9989085 7.5,19.9989085 Z" id="Path"></path>
                </g>
            </g>
        </g>
    </g>
</svg>