<?xml version="1.0" encoding="UTF-8"?>
<svg width="17px" height="17px" viewBox="0 0 17 17" version="1.1" xmlns="http://www.w3.org/2000/svg" xmlns:xlink="http://www.w3.org/1999/xlink">
    <!-- Generator: Sketch 56.3 (81716) - https://sketch.com -->
    <title>Shape</title>
    <desc>Created with Sketch.</desc>
    <g id="Page-1" stroke="none" stroke-width="1" fill="none" fill-rule="evenodd">
        <g id="Desktop" transform="translate(-969.000000, -44.000000)" fill="#000000" fill-rule="nonzero">
            <g id="Group-5" transform="translate(969.000000, 44.000000)">
                <g id="instagram">
                    <path d="M8.13043478,0 C5.92166667,0 5.64590942,0.0101630435 4.77866304,0.0487826087 C3.91277174,0.0894347826 3.32331522,0.225619565 2.805,0.426847826 C2.27042391,0.634173913 1.81647464,0.912641304 1.36455797,1.36455797 C0.912641304,1.81647464 0.633496377,2.26974638 0.426847826,2.805 C0.225619565,3.32331522 0.0887572464,3.91277174 0.0487826087,4.77866304 C0.00813043478,5.64590942 0,5.92166667 0,8.13043478 C0,10.3392029 0.0101630435,10.6149601 0.0487826087,11.4822065 C0.0894347826,12.3474203 0.225619565,12.9375543 0.426847826,13.4558696 C0.634173913,13.9897681 0.912641304,14.4443949 1.36455797,14.8963116 C1.81647464,15.3475507 2.26974638,15.6273732 2.805,15.8340217 C3.32399275,16.0345725 3.91344928,16.1721123 4.77866304,16.212087 C5.64590942,16.2527391 5.92166667,16.2608696 8.13043478,16.2608696 C10.3392029,16.2608696 10.6149601,16.2507065 11.4822065,16.212087 C12.3474203,16.1714348 12.9375543,16.0345725 13.4558696,15.8340217 C13.9897681,15.6266957 14.4443949,15.3475507 14.8963116,14.8963116 C15.3475507,14.4443949 15.6273732,13.9918007 15.8340217,13.4558696 C16.0345725,12.9375543 16.1721123,12.3474203 16.212087,11.4822065 C16.2527391,10.6149601 16.2608696,10.3392029 16.2608696,8.13043478 C16.2608696,5.92166667 16.2507065,5.64590942 16.212087,4.77866304 C16.1714348,3.91344928 16.0345725,3.32263768 15.8340217,2.805 C15.6266957,2.27042391 15.3475507,1.81647464 14.8963116,1.36455797 C14.4443949,0.912641304 13.9918007,0.633496377 13.4558696,0.426847826 C12.9375543,0.225619565 12.3474203,0.0887572464 11.4822065,0.0487826087 C10.6149601,0.00813043478 10.3392029,0 8.13043478,0 Z M8.13043478,1.46347826 C10.3005833,1.46347826 10.5594022,1.47431884 11.4164855,1.51158333 C12.2092029,1.54884783 12.6394384,1.68028986 12.9253587,1.79276087 C13.3061341,1.93978623 13.5757935,2.11594565 13.8617138,2.39983333 C14.1456014,2.68439855 14.3217609,2.95473551 14.4687862,3.33551087 C14.5799022,3.62143116 14.7126993,4.05166667 14.7486087,4.84438406 C14.7872283,5.70214493 14.7960362,5.9596087 14.7960362,8.13043478 C14.7960362,10.3012609 14.7858732,10.5594022 14.7458986,11.4164855 C14.7045688,12.2092029 14.5724493,12.6394384 14.4606558,12.9253587 C14.3088877,13.3061341 14.1361159,13.5757935 13.8515507,13.8617138 C13.567663,14.1456014 13.2932609,14.3217609 12.9165507,14.4687862 C12.6319855,14.5799022 12.1949746,14.7126993 11.4022572,14.7486087 C10.5390761,14.7872283 10.285,14.7960362 8.1101087,14.7960362 C5.93453986,14.7960362 5.68046377,14.7858732 4.81796014,14.7458986 C4.02456522,14.7045688 3.58755435,14.5724493 3.30298913,14.4606558 C2.91747101,14.3088877 2.65255435,14.1361159 2.36866667,13.8515507 C2.08342391,13.567663 1.90116667,13.2932609 1.75888406,12.9165507 C1.64709058,12.6319855 1.51564855,12.1949746 1.47431884,11.4022572 C1.44382971,10.5485616 1.43298913,10.285 1.43298913,8.12027174 C1.43298913,5.95486594 1.44382971,5.69062681 1.47431884,4.82676812 C1.51564855,4.03405072 1.64709058,3.59771739 1.75888406,3.31315217 C1.90116667,2.92695652 2.08342391,2.66271739 2.36866667,2.37747464 C2.65255435,2.09358696 2.91747101,1.91065217 3.30298913,1.7690471 C3.58755435,1.65657609 4.01507971,1.52445652 4.8077971,1.48380435 C5.6716558,1.45331522 5.92573188,1.44315217 8.09994565,1.44315217 L8.13043478,1.46347826 L8.13043478,1.46347826 Z M8.13043478,3.95545652 C5.82342391,3.95545652 3.95545652,5.82545652 3.95545652,8.13043478 C3.95545652,10.4374457 5.82545652,12.305413 8.13043478,12.305413 C10.4374457,12.305413 12.305413,10.435413 12.305413,8.13043478 C12.305413,5.82342391 10.435413,3.95545652 8.13043478,3.95545652 Z M8.13043478,10.8405797 C6.63307971,10.8405797 5.42028986,9.62778986 5.42028986,8.13043478 C5.42028986,6.63307971 6.63307971,5.42028986 8.13043478,5.42028986 C9.62778986,5.42028986 10.8405797,6.63307971 10.8405797,8.13043478 C10.8405797,9.62778986 9.62778986,10.8405797 8.13043478,10.8405797 Z M13.4463841,3.79081522 C13.4463841,4.32945652 13.0086957,4.76646739 12.4707319,4.76646739 C11.9320906,4.76646739 11.4950797,4.32877899 11.4950797,3.79081522 C11.4950797,3.25285145 11.9327681,2.81583979 12.4707319,2.81583979 C13.0080181,2.81516304 13.4463841,3.25285145 13.4463841,3.79081522 Z" id="Shape"></path>
                </g>
            </g>
        </g>
    </g>
</svg>